#!OML:ASF F:\VICON\USERDATA\INSTALL\rory3\rory3.ASF
:FULLY-SPECIFIED
:DEGREES
32
root 0.117526 17.7701 -26.8251 -1.10982 -6.24434 -6.74289
lowerback 7.61801 2.54302 5.88625
upperback 0.744082 3.94676 1.9717
thorax -3.23959 1.89143 -1.64914
lowerneck -16.4751 -3.70022 -1.3801
upperneck 18.4439 -5.04131 1.353
head 8.53513 -2.33144 0.0718352
rclavicle -1.5134e-015 1.06163e-014
rhumerus -23.2067 -6.96632 -81.8833
rradius 30.9764
rwrist 1.95096
rhand -14.7475 24.6561
rfingers 7.12502
rthumb 11.4083 -5.01358
lclavicle -1.5134e-015 1.06163e-014
lhumerus -39.3423 7.278 82.7973
lradius 23.7898
lwrist 0.124202
lhand -24.8786 24.3208
lfingers 7.12502
lthumb 1.62879 54.2943
rfemur 12.1965 7.36699 31.7316
rtibia 29.7935
rfoot -14.7523 -5.92414
rtoes -11.4964
lfemur -23.9186 -2.54579 -11.9242
ltibia 16.9716
lfoot 1.94798 3.99333
ltoes -6.59247
33
root 0.144937 17.7938 -26.6158 -1.23322 -6.00777 -6.09149
lowerback 7.59636 2.47058 5.27714
upperback 0.715421 3.79298 1.77568
thorax -3.29336 1.82086 -1.50016
lowerneck -16.9633 -3.65267 -1.34238
upperneck 18.8786 -5.00976 1.4356
head 8.77167 -2.29658 0.0836636
rclavicle -1.0724e-015 1.79271e-014
rhumerus -23.4154 -7.61969 -81.81
rradius 30.7302
rwrist 2.50942
rhand -13.9994 26.3146
rfingers 7.12502
rthumb 12.1297 -3.31381
lclavicle -1.0724e-015 1.79271e-014
lhumerus -39.3585 7.53473 82.5331
lradius 23.5534
lwrist 0.115047
lhand -24.7251 23.5179
lfingers 7.12502
lthumb 1.77706 53.4902
rfemur 11.9231 7.14154 30.9423
rtibia 31.3334
rfoot -13.2965 -5.78189
rtoes -12.7388
lfemur -23.5348 -2.19037 -12.9828
ltibia 17.4222
lfoot 2.1034 3.50001
ltoes -7.31022
34
root 0.166171 17.8153 -26.4086 -1.47888 -5.65525 -5.4053
lowerback 7.65551 2.40937 4.57929
upperback 0.726054 3.6498 1.57754
thorax -3.35414 1.75739 -1.30711
lowerneck -17.2885 -3.65038 -1.22633
upperneck 19.1613 -5.03388 1.39863
head 8.92326 -2.29769 0.0402202
rclavicle 4.91565e-014 1.02001e-014
rhumerus -23.7618 -8.4334 -81.6739
rradius 30.4907
rwrist 2.90644
rhand -13.8366 27.7355
rfingers 7.12502
rthumb 12.2866 -1.88358
lclavicle 4.91565e-014 1.02001e-014
lhumerus -39.3242 7.48126 82.4301
lradius 23.4038
lwrist 0.313965
lhand -24.4328 24.9527
lfingers 7.12502
lthumb 2.05936 54.9225
rfemur 11.627 6.80913 30.1658
rtibia 33.1046
rfoot -11.6688 -5.60385
rtoes -12.9604
lfemur -23.0549 -1.71168 -14.1005
ltibia 17.9494
lfoot 2.08563 2.55268
ltoes -7.70913
35
root 0.184431 17.8355 -26.2078 -1.91695 -5.07962 -4.72303
lowerback 7.84283 2.30672 3.85842
upperback 0.885092 3.45022 1.40267
thorax -3.33547 1.66966 -1.07246
lowerneck -17.6142 -3.75231 -1.14402
upperneck 19.2493 -5.18519 1.34787
head 9.01052 -2.36412 -0.0170807
rclavicle -2.35839e-014 -1.64122e-014
rhumerus -24.0723 -9.3262 -81.5055
rradius 30.2521
rwrist 3.20195
rhand -14.1682 28.9572
rfingers 7.12502
rthumb 11.9669 -0.680758
lclavicle -2.35839e-014 -1.64122e-014
lhumerus -38.942 7.52374 82.3451
lradius 22.8644
lwrist 0.300592
lhand -24.5788 25.5606
lfingers 7.12502
lthumb 1.91836 55.5317
rfemur 11.3618 6.14548 29.3824
rtibia 35.0879
rfoot -9.89882 -5.4702
rtoes -12.9518
lfemur -22.3518 -1.18592 -15.2657
ltibia 18.4594
lfoot 1.92883 1.49242
ltoes -8.49655
36
root 0.207233 17.8501 -26.0085 -2.23347 -4.43069 -4.33676
lowerback 7.9889 2.21049 3.52613
upperback 1.20866 3.28286 1.21547
thorax -3.09604 1.59772 -1.06199
lowerneck -18.8456 -3.88548 -0.840033
upperneck 19.5735 -5.43595 1.26328
head 9.33701 -2.45234 -0.156944
rclavicle 1.99095e-015 1.33186e-014
rhumerus -23.8953 -10.6216 -81.3865
rradius 29.8738
rwrist 3.53347
rhand -15.1245 28.2999
rfingers 7.12502
rthumb 11.0446 -1.38957
lclavicle 1.99095e-015 1.33186e-014
lhumerus -37.9786 7.38905 82.2522
lradius 22.0819
lwrist 0.365598
lhand -24.7783 24.9151
lfingers 7.12502
lthumb 1.72567 54.8879
rfemur 10.8319 5.30345 28.8141
rtibia 37.1396
rfoot -7.66232 -5.27066
rtoes -12.842
lfemur -21.8143 -0.929274 -16.0271
ltibia 19.0518
lfoot 1.84366 0.583674
ltoes -10.0899
37
root 0.231233 17.8599 -25.8102 -2.34742 -4.06982 -4.04419
lowerback 7.99926 1.96609 3.11079
upperback 0.596601 2.9486 1.35811
thorax -3.77975 1.42113 -0.664808
lowerneck -16.4764 -3.74082 -1.4566
upperneck 19.0763 -5.12663 1.49278
head 8.75808 -2.35637 0.114189
rclavicle 6.52495e-015 1.43622e-014
rhumerus -25.6257 -10.5071 -80.837
rradius 29.7613
rwrist 3.64251
rhand -16.9416 24.3094
rfingers 7.12502
rthumb 9.29172 -5.46579
lclavicle 6.52495e-015 1.43622e-014
lhumerus -39.4298 7.79547 82.0894
lradius 21.9636
lwrist 0.531947
lhand -25.2264 23.6892
lfingers 7.12502
lthumb 1.29293 53.665
rfemur 9.95123 4.75206 28.3117
rtibia 39.2714
rfoot -5.10835 -5.16926
rtoes -12.0853
lfemur -21.6533 -0.577845 -16.6003
ltibia 19.8881
lfoot 1.83864 -0.122686
ltoes -9.56312
